<mxfile host="app.diagrams.net" modified="2023-11-04T20:04:03.111Z" agent="Mozilla/5.0 (Windows NT 10.0; Win64; x64; rv:109.0) Gecko/20100101 Firefox/119.0" etag="d3VhCll3skTstPXxZ6TJ" version="22.0.8" type="github">
  <diagram name="Page-1" id="kdXOE15zgvXjreJDdAsB">
    <mxGraphModel dx="2074" dy="1134" grid="1" gridSize="10" guides="1" tooltips="1" connect="1" arrows="1" fold="1" page="1" pageScale="1" pageWidth="827" pageHeight="1169" math="0" shadow="0">
      <root>
        <mxCell id="0" />
        <mxCell id="1" parent="0" />
        <mxCell id="NUmmN0Gwa0l5Ee_yNgIQ-20" value="&lt;h1&gt;Legend&lt;/h1&gt;&lt;p&gt;- Authenticate(username, PWD_hash) returns cookie with a set lifetime&lt;br&gt;&lt;br&gt;- Get_All_Events(filter, page) returns list of events, filter will be the date filter, page will be the page&#39;s number, actual number returned will be the result of page * X where X is a constant of how many events are displayed on a page&lt;br&gt;&lt;br&gt;- Get_My_Events(user_id, page) returns list of events&lt;br&gt;&lt;br&gt;- Create_User(username, PWD_hash) creates user in database, sends user back to login screen&lt;br&gt;&lt;br&gt;- SendMessage(user_id, event_id, message) creates a message for other users to view in a select event&lt;br&gt;&lt;br&gt;- Get_Specific_Event(event_id) returns a page with all the public info for an event&lt;br&gt;&lt;br&gt;- Get_My_Profile(user_id) returns a page with all the relevant profile info&lt;/p&gt;&lt;p&gt;- Sign_Up_For_Event(user_id, event_id) signs the user up for an event&lt;br&gt;&lt;/p&gt;" style="text;html=1;strokeColor=none;fillColor=none;spacing=5;spacingTop=-20;whiteSpace=wrap;overflow=hidden;rounded=0;" parent="1" vertex="1">
          <mxGeometry x="25" y="560" width="720" height="380" as="geometry" />
        </mxCell>
        <mxCell id="gTqMQ-U4zcdlG1qO-_d0-53" value="&lt;font style=&quot;font-size: 16px;&quot;&gt;API&lt;/font&gt;" style="rounded=0;whiteSpace=wrap;html=1;" vertex="1" parent="1">
          <mxGeometry x="25" y="100" width="670" height="40" as="geometry" />
        </mxCell>
        <mxCell id="gTqMQ-U4zcdlG1qO-_d0-54" value="&lt;font style=&quot;font-size: 14px;&quot;&gt;Name&lt;/font&gt;" style="rounded=0;whiteSpace=wrap;html=1;" vertex="1" parent="1">
          <mxGeometry x="25" y="140" width="200" height="40" as="geometry" />
        </mxCell>
        <mxCell id="gTqMQ-U4zcdlG1qO-_d0-55" value="&lt;font style=&quot;font-size: 14px;&quot;&gt;Method&lt;/font&gt;" style="rounded=0;whiteSpace=wrap;html=1;" vertex="1" parent="1">
          <mxGeometry x="225" y="140" width="110" height="40" as="geometry" />
        </mxCell>
        <mxCell id="gTqMQ-U4zcdlG1qO-_d0-56" value="&lt;font style=&quot;font-size: 14px;&quot;&gt;Endpoint&lt;/font&gt;" style="rounded=0;whiteSpace=wrap;html=1;" vertex="1" parent="1">
          <mxGeometry x="335" y="140" width="170" height="40" as="geometry" />
        </mxCell>
        <mxCell id="gTqMQ-U4zcdlG1qO-_d0-58" value="&lt;font style=&quot;font-size: 14px;&quot;&gt;Description&lt;br&gt;&lt;/font&gt;" style="rounded=0;whiteSpace=wrap;html=1;" vertex="1" parent="1">
          <mxGeometry x="505" y="140" width="190" height="40" as="geometry" />
        </mxCell>
        <mxCell id="gTqMQ-U4zcdlG1qO-_d0-59" value="Authenticate" style="rounded=0;whiteSpace=wrap;html=1;" vertex="1" parent="1">
          <mxGeometry x="25" y="180" width="200" height="40" as="geometry" />
        </mxCell>
        <mxCell id="gTqMQ-U4zcdlG1qO-_d0-60" value="POST" style="rounded=0;whiteSpace=wrap;html=1;" vertex="1" parent="1">
          <mxGeometry x="225" y="180" width="110" height="40" as="geometry" />
        </mxCell>
        <mxCell id="gTqMQ-U4zcdlG1qO-_d0-61" value="/." style="rounded=0;whiteSpace=wrap;html=1;" vertex="1" parent="1">
          <mxGeometry x="335" y="180" width="170" height="40" as="geometry" />
        </mxCell>
        <mxCell id="gTqMQ-U4zcdlG1qO-_d0-62" value="Authenticates the user" style="rounded=0;whiteSpace=wrap;html=1;" vertex="1" parent="1">
          <mxGeometry x="505" y="180" width="190" height="40" as="geometry" />
        </mxCell>
        <mxCell id="gTqMQ-U4zcdlG1qO-_d0-63" value="Get_All_Events" style="rounded=0;whiteSpace=wrap;html=1;" vertex="1" parent="1">
          <mxGeometry x="25" y="220" width="200" height="40" as="geometry" />
        </mxCell>
        <mxCell id="gTqMQ-U4zcdlG1qO-_d0-64" value="GET" style="rounded=0;whiteSpace=wrap;html=1;" vertex="1" parent="1">
          <mxGeometry x="225" y="220" width="110" height="40" as="geometry" />
        </mxCell>
        <mxCell id="gTqMQ-U4zcdlG1qO-_d0-65" value="/." style="rounded=0;whiteSpace=wrap;html=1;" vertex="1" parent="1">
          <mxGeometry x="335" y="220" width="170" height="40" as="geometry" />
        </mxCell>
        <mxCell id="gTqMQ-U4zcdlG1qO-_d0-66" value="Gets Filters" style="rounded=0;whiteSpace=wrap;html=1;" vertex="1" parent="1">
          <mxGeometry x="505" y="220" width="190" height="40" as="geometry" />
        </mxCell>
        <mxCell id="gTqMQ-U4zcdlG1qO-_d0-67" value="Get_My_Events" style="rounded=0;whiteSpace=wrap;html=1;" vertex="1" parent="1">
          <mxGeometry x="25" y="260" width="200" height="40" as="geometry" />
        </mxCell>
        <mxCell id="gTqMQ-U4zcdlG1qO-_d0-68" value="GET" style="rounded=0;whiteSpace=wrap;html=1;" vertex="1" parent="1">
          <mxGeometry x="225" y="260" width="110" height="40" as="geometry" />
        </mxCell>
        <mxCell id="gTqMQ-U4zcdlG1qO-_d0-69" value="/user" style="rounded=0;whiteSpace=wrap;html=1;" vertex="1" parent="1">
          <mxGeometry x="335" y="260" width="170" height="40" as="geometry" />
        </mxCell>
        <mxCell id="gTqMQ-U4zcdlG1qO-_d0-70" value="getsevents made by user" style="rounded=0;whiteSpace=wrap;html=1;" vertex="1" parent="1">
          <mxGeometry x="505" y="260" width="190" height="40" as="geometry" />
        </mxCell>
      </root>
    </mxGraphModel>
  </diagram>
</mxfile>
